<svg xmlns:dc="http://purl.org/dc/elements/1.1/" xmlns:cc="http://creativecommons.org/ns#" xmlns:rdf="http://www.w3.org/1999/02/22-rdf-syntax-ns#" xmlns:svg="http://www.w3.org/2000/svg" xmlns="http://www.w3.org/2000/svg" xmlns:xlink="http://www.w3.org/1999/xlink" id="svg709531" viewBox="0 0 1024 768" height="768px" width="1024px" version="1.1">
  <metadata id="metadata709537">
    <rdf:rdf>
      <cc:work rdf:about="">
        <dc:format>image/svg+xml</dc:format>
        <dc:type rdf:resource="http://purl.org/dc/dcmitype/StillImage"></dc:type>
      </cc:work>
    </rdf:rdf>
  </metadata>
  <defs id="defs709535"></defs>
  <linearGradient spreadMethod="pad" y2="30%" x2="-10%" y1="120%" x1="30%" id="3d_gradient2-logo-17db751d-e040-41b3-aa0c-910c57c97b6b">
    <stop id="stop709512" stop-opacity="1" stop-color="#ffffff" offset="0%"></stop>
    <stop id="stop709514" stop-opacity="1" stop-color="#000000" offset="100%"></stop>
  </linearGradient>
  <linearGradient gradientTransform="rotate(-30)" spreadMethod="pad" y2="30%" x2="-10%" y1="120%" x1="30%" id="3d_gradient3-logo-17db751d-e040-41b3-aa0c-910c57c97b6b">
    <stop id="stop709517" stop-opacity="1" stop-color="#ffffff" offset="0%"></stop>
    <stop id="stop709519" stop-opacity="1" stop-color="#cccccc" offset="50%"></stop>
    <stop id="stop709521" stop-opacity="1" stop-color="#000000" offset="100%"></stop>
  </linearGradient>
  <g id="logo-group">
    <image xlink:href="" id="container" x="272" y="144" width="480" height="480" style="display: none;" transform="translate(0 0)"></image>
    <g id="logo-center" transform="translate(5.684341886080802e-14 0)">
      <image xlink:href="" id="icon_container" x="0" y="0" style="display: none;"></image>
      <g id="slogan" style="font-style:oblique;font-weight:normal;font-size:32px;line-height:1;font-family:'Fanwood Text';font-variant-ligatures:none;text-align:center;text-anchor:middle" transform="translate(0 0)"></g>
      <g id="title" style="font-style:normal;font-weight:normal;font-size:72px;line-height:1;font-family:'Brandmark Script 8 Shadow';font-variant-ligatures:normal;text-align:center;text-anchor:middle" transform="translate(0 0)">
        <g id="path709540" aria-label="G" transform="translate(0 317.8972) translate(337.6075625 27.823999999999998) scale(1.55) translate(-406.15719 40.32)"> <path class="c1" d="M113.96924,112.3125c-1.15234,2.52002-3.3125,4.24854-6.04883,5.47266 c0.7207-1.80029,1.2959-3.74463,1.87207-5.83252l2.30469-8.49707h-5.25684c-1.87207,5.04053-6.4082,9.07324-11.30469,9.36084 c-3.81641,0.21631-7.05664-3.24023-4.82422-10.87256c2.01563-6.84082,7.63281-12.38525,12.81641-12.38525 c2.16016,0,4.32129,1.15186,4.53711,3.24023c0.14355,1.36816-0.50391,2.59229-1.80078,3.02441 c-0.86328,0.28809-2.30371,0.14404-2.87988-1.0083l-3.60059,1.80029c0.79199,2.23193,3.38477,3.88818,6.12109,3.88818 c4.46387,0,7.12793-3.67236,7.12793-7.84863c0-4.39209-4.10352-7.77637-9.57617-7.77637 c-5.97656,0-14.3291,4.896-17.49805,15.69727c-2.66406,9.07275,0.64844,17.06543,9.00098,16.92139 c3.60059-0.07227,6.48047-1.29639,8.78516-3.02441c-0.64844,1.94434-1.44043,3.60059-2.23242,5.1123 c-2.0166,0.36035-4.03223,0.64844-5.97656,0.79248c-8.28125,0.71973-13.68164,3.24023-13.68164,8.35254 c0,2.80811,2.37695,5.54443,7.9209,5.54443c5.9043,0,11.2334-3.81641,15.19336-10.44092 c5.68848-1.51221,10.94531-4.39258,13.17773-10.5127L113.96924,112.3125z M89.19873,129.30615 c-1.2959,0-2.08789-0.36035-2.08789-0.93604c0-0.93604,1.15234-1.94434,7.77637-2.73633 c0.79199-0.07227,1.65625-0.14404,2.44824-0.28809C94.52783,128.08203,91.50342,129.30615,89.19873,129.30615z" transform="translate(324.30318 -125.19841)" stroke-width="0" stroke-linejoin="miter" stroke-miterlimit="2" fill="#664fce" stroke="#664fce"></path> <linearGradient id="f5abd846-f217-4d68-af72-6e28b904eb02" gradientUnits="userSpaceOnUse" x1="112.09197" y1="112.47298" x2="90.48824" y2="108.81861"> <stop offset="0.14823" style="stop-color:#000000"></stop> <stop offset="0.58607" style="stop-color:#000000;stop-opacity:0"></stop> </linearGradient> <path class="highlight" fill="url(#f5abd846-f217-4d68-af72-6e28b904eb02)" d="M103.74463,114.47265c-2.30469,1.72803-5.18457,2.95215-8.78516,3.02441 c-4.96142,0.08556-8.14452-2.69982-9.35303-6.87717l4.64407-1.82483c0.73969,2.85701,2.89988,4.15652,5.28513,4.02133 c4.89648-0.2876,9.43262-4.32031,11.30469-9.36084L103.74463,114.47265z" transform="translate(324.30318 -125.19841)" stroke-width="0" stroke-linejoin="miter" stroke-miterlimit="2" opacity="0.7000000000000001"></path> <linearGradient id="1ac63559-588f-4c5f-b848-663ced3dff6b" gradientUnits="userSpaceOnUse" x1="109.17905" y1="122.62391" x2="106.89044" y2="111.92127"> <stop offset="0.05566" style="stop-color:#000000"></stop> <stop offset="1" style="stop-color:#000000;stop-opacity:0"></stop> </linearGradient> <path class="highlight" fill="url(#1ac63559-588f-4c5f-b848-663ced3dff6b)" d="M106.84033,103.45555l-3.0957,11.01709c-0.64844,1.94434-1.44043,3.60059-2.23242,5.1123 c2.42783-0.54021,4.91569-1.08172,6.4082-1.7998c0.7207-1.80029,1.2959-3.74463,1.87207-5.83252l2.30469-8.49707H106.84033z" transform="translate(324.30318 -125.19841)" stroke-width="0" stroke-linejoin="miter" stroke-miterlimit="2" opacity="0.7000000000000001"></path> <linearGradient id="4722001e-7950-492b-bc46-91772a490a55" gradientUnits="userSpaceOnUse" x1="96.33028" y1="121.46339" x2="97.25685" y2="128.21762"> <stop offset="0.32431" style="stop-color:#000000"></stop> <stop offset="0.98539" style="stop-color:#000000;stop-opacity:0"></stop> </linearGradient> <path class="highlight" fill="url(#4722001e-7950-492b-bc46-91772a490a55)" d="M97.33545,125.34569c-2.80762,2.73633-5.83203,3.96045-8.13672,3.96045l0.57617,4.96826 c5.9043,0,11.2334-3.81641,15.19336-10.44092C103.43387,124.40379,99.77379,125.06403,97.33545,125.34569z" transform="translate(324.30318 -125.19841)" stroke-width="0" stroke-linejoin="miter" stroke-miterlimit="2" opacity="0.7000000000000001"></path> </g>
        <g id="path709542" aria-label="e" transform="translate(0 317.8972) translate(385.8220794999999 53.7152) scale(1.55) translate(-437.26333 23.616)"> <path class="c1" d="M107.4193,112.31299c-2.95313,7.34473-7.99316,9.00098-10.51367,9.00098 c-1.58398,0-3.81592-1.29639-3.81592-4.24854c4.96826-0.43213,11.88135-3.16846,12.88916-9.00098 c0.28809-1.72803,0.07227-3.31201-1.15234-4.68018c-1.00781-1.15234-2.66406-1.80029-4.6084-1.80029 c-7.70459,0-11.73682,8.71289-11.88086,14.90527c-0.14404,5.11279,3.09619,9.28906,8.20898,9.28906 c3.45605,0,10.29688-1.22412,15.12109-12.45703L107.4193,112.31299z M96.40172,107.99268 c1.08008-1.22412,3.16797-2.66406,4.75293-1.65625c0.43164,0.28809,0.64746,0.79199,0.64746,1.15234 c0,2.37598-4.53613,4.6084-7.92041,5.04004C94.3856,110.94482,95.24986,109.36084,96.40172,107.99268z" transform="translate(348.930673 -125.19998)" stroke-width="0" stroke-linejoin="miter" stroke-miterlimit="2" fill="#664fce" stroke="#664fce"></path> <linearGradient id="1e48ab67-ff04-4ce7-a210-9eac20415aa9" gradientUnits="userSpaceOnUse" x1="88.94456" y1="112.04886" x2="97.93105" y2="112.29011"> <stop offset="0.05566" style="stop-color:#000000"></stop> <stop offset="1" style="stop-color:#000000;stop-opacity:0"></stop> </linearGradient> <path class="highlight" fill="url(#1e48ab67-ff04-4ce7-a210-9eac20415aa9)" d="M93.08974,117.06541c4.96826-0.43213,11.88135-3.16846,12.88916-9.00098l-4.17676-0.57568 c0,2.37598-4.53613,4.6084-7.92041,5.04004C93.38009,113.99014,93.09414,115.49767,93.08974,117.06541z" transform="translate(348.930673 -125.19998)" stroke-width="0" stroke-linejoin="miter" stroke-miterlimit="2" opacity="0.7000000000000001"></path> </g>
        <g id="path709544" aria-label="t" transform="translate(0 317.8972) translate(412.9541165 41.9972) scale(1.55) translate(-454.76787 31.176)"> <path class="c1" d="M92.93837,114.25732l3.24023-12.09717H92.3622l1.15234-4.32031h3.8877l1.00879-3.81641h4.82422 l-1.00781,3.81641h4.96777l-1.15137,4.32031h-4.96875l-3.3125,12.16895c-0.86426,3.16846-2.16016,7.12891-0.28809,7.12891 c1.58398,0,4.10449-2.66455,6.26465-9.14502l4.24805,1.0083c-2.44824,7.12842-5.83203,12.45703-10.94434,12.45703 C91.13857,125.77831,91.42567,119.72948,92.93837,114.25732z" transform="translate(362.755063 -125.19942)" stroke-width="0" stroke-linejoin="miter" stroke-miterlimit="2" fill="#664fce" stroke="#664fce"></path> <linearGradient id="1c330d84-c0ad-4ae3-b330-b238ceb0f119" gradientUnits="userSpaceOnUse" x1="97.86064" y1="98.53104" x2="97.04663" y2="107.75646"> <stop offset="0.05566" style="stop-color:#000000"></stop> <stop offset="1" style="stop-color:#000000;stop-opacity:0"></stop> </linearGradient> <polygon class="highlight" fill="url(#1c330d84-c0ad-4ae3-b330-b238ceb0f119)" points="97.76259,114.32909 101.07509,102.16014 96.1786,102.16014 92.93837,114.25731 " transform="translate(362.755063 -125.19942)" stroke-width="0" stroke-linejoin="miter" stroke-miterlimit="2" opacity="0.7000000000000001"></polygon> <linearGradient id="25e64da0-119d-4a07-be35-b7a3b6223996" gradientUnits="userSpaceOnUse" x1="100.17747" y1="100.59328" x2="100.3177" y2="95.96603"> <stop offset="0.05566" style="stop-color:#000000"></stop> <stop offset="1" style="stop-color:#000000;stop-opacity:0"></stop> </linearGradient> <polygon class="highlight" fill="url(#25e64da0-119d-4a07-be35-b7a3b6223996)" points="98.41103,94.02342 97.40224,97.83983 102.22743,97.83983 103.23524,94.02342 " transform="translate(362.755063 -125.19942)" stroke-width="0" stroke-linejoin="miter" stroke-miterlimit="2" opacity="0.7000000000000001"></polygon> </g>
        <g id="path709546" aria-label="C" transform="translate(0 317.8972) translate(473.88791799999996 27.823999999999998) scale(1.55) translate(-494.08 40.32)"> <path class="c1" d="M86.38919,118.937c-2.16016-4.39209-2.16016-10.22461,0.14404-17.28125 c3.45654-10.51318,11.30518-16.77734,19.29785-16.77734c4.96826,0,8.7124,3.02393,9.28857,7.27246 c0.72021,5.47217-2.80811,9.00049-7.27246,9.00049c-2.73633,0-4.89648-1.7998-5.76074-3.88818l3.60059-1.80029 c0.43213,1.0083,1.58398,1.22412,2.52002,1.08008c1.36816-0.21582,2.23242-1.65576,2.01611-3.38428 c-0.28809-2.01611-1.87207-3.6001-4.75244-3.6001c-5.25635,0-11.0166,5.54443-13.8252,12.81689 c-1.87207,4.89648-2.23193,9.86523-1.08008,13.32129c1.15234,3.45654,3.88867,5.40039,7.27295,5.40039 c5.68848,0,10.36865-4.53613,11.88086-8.78467l4.17627,1.0083c-3.45605,8.64063-10.08057,12.45703-16.27344,12.45703 C93.80569,125.77782,88.9097,124.04931,86.38919,118.937z" transform="translate(409.293361 -125.19841)" stroke-width="0" stroke-linejoin="miter" stroke-miterlimit="2" fill="#664fce" stroke="#664fce"></path> </g>
        <g id="path709548" aria-label="o" transform="translate(0 317.8972) translate(510.96853699999986 53.7152) scale(1.55) translate(-518.00298 23.616)"> <path class="c1" d="M109.24422,112.31299c-0.71973,2.52051-2.30371,3.45654-3.74414,3.45654 c-0.21582,0-0.35938,0-0.57617-0.07227c2.0166-6.9126,0.2168-12.45703-4.67969-13.8252 c-0.57617-0.14404-1.36816-0.28809-1.87207-0.28809c-4.89648,0-9.07324,3.67236-11.01758,9.93701 c-2.16016,7.12842-0.07227,12.67285,4.89648,14.04102c0.64844,0.14404,1.2959,0.21631,1.94434,0.21631 c3.16797,0,6.55273-1.94434,8.85645-5.76074c0.64844,0.21631,1.36816,0.28809,2.37695,0.28809 c2.66406,0,6.26367-1.22412,8.06445-6.98438L109.24422,112.31299z M101.03621,112.16895 c-1.94434,0.50391-3.16895,4.03223-1.87207,5.32861c-1.58496,2.59229-3.67285,3.96045-5.3291,3.67236 c-2.51953-0.50439-3.59961-3.74463-1.87207-8.71289c1.5127-4.32031,4.75293-6.98438,7.12891-6.12061 C100.67586,106.9126,101.54012,109.00098,101.03621,112.16895z" transform="translate(431.496226 -125.19996)" stroke-width="0" stroke-linejoin="miter" stroke-miterlimit="2" fill="#664fce" stroke="#664fce"></path> <linearGradient id="1411d9d9-3f69-43a7-b69a-46c53ad7a143" gradientUnits="userSpaceOnUse" x1="97.87502" y1="115.66622" x2="101.34937" y2="109.19674"> <stop offset="0" style="stop-color:#000000"></stop> <stop offset="1" style="stop-color:#000000;stop-opacity:0"></stop> </linearGradient> <path class="highlight" fill="url(#1411d9d9-3f69-43a7-b69a-46c53ad7a143)" d="M99.09188,106.33641c1.58398,0.57617,2.44824,2.66455,1.94434,5.83252 c-0.04245,1.42365,1.51645,3.08606,3.8877,3.52832c2.0166-6.9126,0.2168-12.45703-4.67969-13.8252 c-0.57617-0.14404-1.36816-0.28809-1.87207-0.28809L99.09188,106.33641z" transform="translate(431.496226 -125.19996)" stroke-width="0" stroke-linejoin="miter" stroke-miterlimit="2" opacity="0.7000000000000001"></path> <linearGradient id="b60d3d88-19cb-4a9a-b99a-8ccca565765b" gradientUnits="userSpaceOnUse" x1="102.14655" y1="115.38183" x2="97.83356" y2="121.49189"> <stop offset="0" style="stop-color:#000000"></stop> <stop offset="1" style="stop-color:#000000;stop-opacity:0"></stop> </linearGradient> <path class="highlight" fill="url(#b60d3d88-19cb-4a9a-b99a-8ccca565765b)" d="M99.16415,117.49754c-1.58496,2.59229-3.67285,3.96045-5.3291,3.67236l-1.58398,4.39209 c0.64844,0.14404,1.2959,0.21631,1.94434,0.21631c3.16797,0,6.55273-1.94434,8.85645-5.76074 C101.07064,119.48761,99.67611,118.27946,99.16415,117.49754z" transform="translate(431.496226 -125.19996)" stroke-width="0" stroke-linejoin="miter" stroke-miterlimit="2" opacity="0.7000000000000001"></path> </g>
        <g id="path709550" aria-label="o" transform="translate(0 317.8972) translate(544.9716619999998 53.7152) scale(1.55) translate(-539.94048 23.616)"> <path class="c1" d="M109.24422,112.31299c-0.71973,2.52051-2.30371,3.45654-3.74414,3.45654 c-0.21582,0-0.35938,0-0.57617-0.07227c2.0166-6.9126,0.2168-12.45703-4.67969-13.8252 c-0.57617-0.14404-1.36816-0.28809-1.87207-0.28809c-4.89648,0-9.07324,3.67236-11.01758,9.93701 c-2.16016,7.12842-0.07227,12.67285,4.89648,14.04102c0.64844,0.14404,1.2959,0.21631,1.94434,0.21631 c3.16797,0,6.55273-1.94434,8.85645-5.76074c0.64844,0.21631,1.36816,0.28809,2.37695,0.28809 c2.66406,0,6.26367-1.22412,8.06445-6.98438L109.24422,112.31299z M101.03621,112.16895 c-1.94434,0.50391-3.16895,4.03223-1.87207,5.32861c-1.58496,2.59229-3.67285,3.96045-5.3291,3.67236 c-2.51953-0.50439-3.59961-3.74463-1.87207-8.71289c1.5127-4.32031,4.75293-6.98438,7.12891-6.12061 C100.67586,106.9126,101.54012,109.00098,101.03621,112.16895z" transform="translate(453.433726 -125.19996)" stroke-width="0" stroke-linejoin="miter" stroke-miterlimit="2" fill="#664fce" stroke="#664fce"></path> <linearGradient id="c43ed055-0a5c-4bb2-845d-145332b605a1" gradientUnits="userSpaceOnUse" x1="97.87502" y1="115.66622" x2="101.34937" y2="109.19674"> <stop offset="0" style="stop-color:#000000"></stop> <stop offset="1" style="stop-color:#000000;stop-opacity:0"></stop> </linearGradient> <path class="highlight" fill="url(#c43ed055-0a5c-4bb2-845d-145332b605a1)" d="M99.09188,106.33641c1.58398,0.57617,2.44824,2.66455,1.94434,5.83252 c-0.04245,1.42365,1.51645,3.08606,3.8877,3.52832c2.0166-6.9126,0.2168-12.45703-4.67969-13.8252 c-0.57617-0.14404-1.36816-0.28809-1.87207-0.28809L99.09188,106.33641z" transform="translate(453.433726 -125.19996)" stroke-width="0" stroke-linejoin="miter" stroke-miterlimit="2" opacity="0.7000000000000001"></path> <linearGradient id="80ce887e-20e5-409f-814c-039fd1f2ee9f" gradientUnits="userSpaceOnUse" x1="102.14655" y1="115.38183" x2="97.83356" y2="121.49189"> <stop offset="0" style="stop-color:#000000"></stop> <stop offset="1" style="stop-color:#000000;stop-opacity:0"></stop> </linearGradient> <path class="highlight" fill="url(#80ce887e-20e5-409f-814c-039fd1f2ee9f)" d="M99.16415,117.49754c-1.58496,2.59229-3.67285,3.96045-5.3291,3.67236l-1.58398,4.39209 c0.64844,0.14404,1.2959,0.21631,1.94434,0.21631c3.16797,0,6.55273-1.94434,8.85645-5.76074 C101.07064,119.48761,99.67611,118.27946,99.16415,117.49754z" transform="translate(453.433726 -125.19996)" stroke-width="0" stroke-linejoin="miter" stroke-miterlimit="2" opacity="0.7000000000000001"></path> </g>
        <g id="path709552" aria-label="k" transform="translate(0 317.8972) translate(574.5971374999998 27.823999999999998) scale(1.55) translate(-559.05369 40.32)"> <path class="c1" d="M101.43941,121.31396c-2.95215,0-4.17676-3.96045-4.46387-5.25684 c9.57617-3.02393,11.59277-8.35254,10.00879-11.66455c-1.00879-2.08838-3.09668-2.80859-4.75293-2.80859 c-2.44824,0-4.46387,1.29639-6.26465,3.02441c0.7207-2.80811,1.58398-5.6167,2.80859-8.28076 c1.87207,0.86426,4.10449,1.80029,7.27246,1.80029c4.89648,0,8.49707-2.80859,8.4248-6.9126 c-0.07227-3.81641-3.52832-6.33691-7.9209-6.33691c-4.03223,0-7.2002,2.23242-9.7207,5.76074 c-2.87988-0.93604-5.9043-1.08008-8.78516-0.14404l1.29688,4.03223c2.01563-0.43213,3.45605-0.28809,5.1123,0.14404 c-1.08008,2.23242-1.94434,4.75244-2.66406,7.48877l-6.26465,23.04199h4.82422l2.08789-7.77686 c0.93652,3.81641,4.24902,8.35303,8.64063,8.35303c5.97656,0,9.64941-4.6084,12.31348-12.45703l-4.24805-1.0083 C106.69624,119.51367,104.0312,121.31396,101.43941,121.31396z M106.91206,89.19922c1.87207,0,3.16797,1.00781,3.16797,2.16016 c0,1.2959-1.22363,2.59229-3.95996,2.59229c-1.72852,0-3.38477-0.64844-5.04102-1.44043 C102.66402,90.49512,104.53609,89.19922,106.91206,89.19922z M94.09468,112.60107c2.44824-4.39258,7.34473-7.63281,8.56934-6.19238 C103.5273,107.4165,101.36714,110.87305,94.09468,112.60107z" transform="translate(473.52738 -125.1984)" stroke-width="0" stroke-linejoin="miter" stroke-miterlimit="2" fill="#664fce" stroke="#664fce"></path> <linearGradient id="13ff4a64-6fe2-44ae-916e-b3a8c9604f24" gradientUnits="userSpaceOnUse" x1="97.47138" y1="93.48288" x2="95.42572" y2="99.1815"> <stop offset="0.05566" style="stop-color:#000000"></stop> <stop offset="1" style="stop-color:#000000;stop-opacity:0"></stop> </linearGradient> <path class="highlight" fill="url(#13ff4a64-6fe2-44ae-916e-b3a8c9604f24)" d="M94.45503,94.67137c-1.08008,2.23242-1.94434,4.75244-2.66406,7.48877l-1.71872,6.32158 l4.936-0.3894l0.9585-3.48393c0.7207-2.80811,1.58398-5.6167,2.80859-8.28076 C97.44482,95.67136,95.95373,95.03835,94.45503,94.67137z" transform="translate(473.52738 -125.1984)" stroke-width="0" stroke-linejoin="miter" stroke-miterlimit="2" opacity="0.7000000000000001"></path> <linearGradient id="ae0cc434-a50a-45e4-97ac-f33dbce1334d" gradientUnits="userSpaceOnUse" x1="99.31973" y1="96.02131" x2="102.4566" y2="88.52011"> <stop offset="0.05566" style="stop-color:#000000"></stop> <stop offset="1" style="stop-color:#000000;stop-opacity:0"></stop> </linearGradient> <path class="highlight" fill="url(#ae0cc434-a50a-45e4-97ac-f33dbce1334d)" d="M106.55171,84.8784c-4.03223,0-7.2002,2.23242-9.7207,5.76074 c1.30309,0.41827,3.16899,1.30448,4.24805,1.87207c1.58496-2.01611,3.45703-3.31201,5.83301-3.31201L106.55171,84.8784z" transform="translate(473.52738 -125.1984)" stroke-width="0" stroke-linejoin="miter" stroke-miterlimit="2" opacity="0.7000000000000001"></path> <linearGradient id="c0c1cea0-6817-4277-b423-d9dd115cde15" gradientUnits="userSpaceOnUse" x1="91.13859" y1="111.2507" x2="99.33598" y2="113.15009"> <stop offset="0" style="stop-color:#000000"></stop> <stop offset="1" style="stop-color:#000000;stop-opacity:0"></stop> </linearGradient> <path class="highlight" fill="url(#c0c1cea0-6817-4277-b423-d9dd115cde15)" d="M104.5518,120.23047c-1.03687,0.79807-2.08044,1.08348-3.1124,1.08348 c-2.95215,0-4.17676-3.96045-4.46387-5.25684c9.57617-3.02393,11.59277-8.35254,10.00879-11.66455 c-1.00879-2.08838-3.09668-2.80859-4.75293-2.80859c-2.44824,0-4.46387,1.29639-6.26465,3.02441l-3.52832,12.81689 c0.93652,3.81641,4.24902,8.35303,8.64063,8.35303c2.70154,0,4.93237-0.9416,6.8121-2.69846L104.5518,120.23047z M94.09468,112.60106c2.44824-4.39258,7.34473-7.63281,8.56934-6.19238C103.5273,107.41649,101.36714,110.87303,94.09468,112.60106 z" transform="translate(473.52738 -125.1984)" stroke-width="0" stroke-linejoin="miter" stroke-miterlimit="2" opacity="0.7000000000000001"></path> <linearGradient id="e3d0a452-fc39-4daf-b000-dae3b7bcff13" gradientUnits="userSpaceOnUse" x1="93.29826" y1="106.54441" x2="97.94373" y2="122.92583"> <stop offset="0.09671" style="stop-color:#000000"></stop> <stop offset="0.87829" style="stop-color:#000000;stop-opacity:0"></stop> </linearGradient> <path class="highlight" fill="url(#e3d0a452-fc39-4daf-b000-dae3b7bcff13)" d="M101.43941,121.31395c-2.95215,0-4.17676-3.96045-4.46387-5.25684 c-1.25309,0.44565-3.38753,0.8093-4.38654,0.82124l-0.15057,0.54692c0.93652,3.81641,4.24902,8.35303,8.64063,8.35303 L101.43941,121.31395z" transform="translate(473.52738 -125.1984)" stroke-width="0" stroke-linejoin="miter" stroke-miterlimit="2" opacity="0.7000000000000001"></path> </g>
        <g id="path709554" aria-label="i" transform="translate(0 317.8972) translate(608.5879089999999 41.216) scale(1.55) translate(-580.98322 31.68)"> <path class="c1" d="M92.79058,122.96972c-0.64746-1.43994-0.86328-3.88818,0.07227-7.27246l3.67285-13.53711h4.82422 l-4.03223,15.04932c-0.57617,2.08838-0.86426,3.81641,0.07129,4.17627c1.29688,0.50391,3.96094-2.59229,6.12109-9.07275 l4.24805,1.0083c-2.44824,7.12842-5.54395,12.45703-10.72852,12.45703C94.95171,125.77831,93.36675,124.26611,92.79058,122.96972z M100.27984,93.51952c1.65625,0,2.66406,1.15186,2.66406,2.66406s-1.15234,2.73633-2.66406,2.73633 c-1.5127,0-2.73633-1.22412-2.73633-2.73633S98.76714,93.51952,100.27984,93.51952z" transform="translate(488.751346 -125.19952)" stroke-width="0" stroke-linejoin="miter" stroke-miterlimit="2" fill="#664fce" stroke="#664fce"></path> </g>
        <g id="path709556" aria-label="n" transform="translate(0 317.8972) translate(620.2589749999999 53.7152) scale(1.55) translate(-588.51294 23.616)"> <path class="c1" d="M89.70313,125.20214h-4.82422l6.19238-23.04199h4.82422l-0.5752,2.08838 c1.87207-1.65625,4.03223-2.66455,6.26367-2.66455c1.65625,0,3.52832,0.86426,4.46484,2.52051 c1.08008,1.94385,1.08008,3.95996,0.14355,7.20068l-1.72754,5.9043c-0.7207,2.37598-0.86426,3.88818,0.28809,4.17627 c1.58398,0.35986,3.95996-2.59229,6.12012-9.07275l4.24805,1.0083c-2.44824,7.12842-6.26367,12.45703-11.0166,12.45703 c-2.30371,0-3.74414-1.36816-4.39258-3.16846c-0.71973-2.16016-0.50391-4.39209,0.36035-7.20068l1.44043-4.68018 c0.79199-2.80859,0.79199-4.32031-0.14453-4.75244c-1.65625-0.79199-5.1123,1.80029-7.2002,5.97656 c-1.00879,1.94385-1.87207,4.104-2.88086,7.34473L89.70313,125.20214z" transform="translate(503.63403 -125.19998)" stroke-width="0" stroke-linejoin="miter" stroke-miterlimit="2" fill="#664fce" stroke="#664fce"></path> <linearGradient id="1b14058d-9474-456e-a54c-8a85875c9593" gradientUnits="userSpaceOnUse" x1="91.48785" y1="109.22788" x2="97.88999" y2="110.71131"> <stop offset="0" style="stop-color:#000000"></stop> <stop offset="1" style="stop-color:#000000;stop-opacity:0"></stop> </linearGradient> <path class="highlight" fill="url(#1b14058d-9474-456e-a54c-8a85875c9593)" d="M95.32031,104.24853c1.87207-1.65625,4.03223-2.66455,6.26367-2.66455 c1.65625,0,3.52832,0.86426,4.46484,2.52051c1.08008,1.94385,1.08008,3.95996,0.14355,7.20068l-4.67969-0.57617 c0.79199-2.80859,0.79199-4.32031-0.14453-4.75244c-1.65625-0.79199-5.1123,1.80029-7.2002,5.97656 c-1.00879,1.94385-1.87207,4.104-2.88086,7.34473L95.32031,104.24853z" transform="translate(503.63403 -125.19998)" stroke-width="0" stroke-linejoin="miter" stroke-miterlimit="2" opacity="0.7000000000000001"></path> </g>
        <path id="path709558" style="font-style:normal;font-weight:normal;font-size:72px;line-height:1;font-family:'Brandmark Script 8 Shadow';font-variant-ligatures:normal;text-align:center;text-anchor:middle" d="m 627.29169,-29.232 3.888,-11.088 h -4.464 l -3.168,11.088 z" stroke-width="0" stroke-linejoin="miter" stroke-miterlimit="2" fill="#332867" stroke="#332867" transform="translate(0 317.8972) translate(674.5628374999999 27.823999999999998) scale(1.55) translate(-623.54769 40.32)"></path>
               </g>
      <image xlink:href="" id="icon" x="0" y="0" style="display: none;"></image>
    </g>
  </g>
</svg>