<svg xmlns:dc="http://purl.org/dc/elements/1.1/" xmlns:cc="http://creativecommons.org/ns#" xmlns:rdf="http://www.w3.org/1999/02/22-rdf-syntax-ns#" xmlns:svg="http://www.w3.org/2000/svg" xmlns="http://www.w3.org/2000/svg" id="svg376855" viewBox="0 0 200 200" height="200px" width="200px" version="1.1">
  <metadata id="metadata376861">
    <rdf:RDF>
      <cc:Work rdf:about="">
        <dc:format>image/svg+xml</dc:format>
        <dc:type rdf:resource="http://purl.org/dc/dcmitype/StillImage"/>
      </cc:Work>
    </rdf:RDF>
  </metadata>
  <defs id="defs376859"/>
  <g id="monogram" style="font-style:normal;font-weight:normal;font-size:120px;line-height:1;font-family:'Brandmark Script 8 Shadow';font-variant-ligatures:none;text-align:center;dominant-baseline:middle;text-anchor:middle;fill:#f9e7db" aria-label="G">
    <path id="path376863" style="font-style:normal;font-weight:normal;font-size:120px;line-height:1;font-family:'Brandmark Script 8 Shadow';font-variant-ligatures:none;text-align:center;dominant-baseline:middle;text-anchor:middle;fill:#f9e7db" d="m 125.19438,97.120001 3.83999,-14.16 h -8.76 c -3.11999,8.4 -10.67999,15.12 -18.83999,15.6 -6.360005,0.36 -11.760005,-5.4 -8.040005,-18.12 3.36,-11.4 12.719995,-20.64 21.359995,-20.64 3.60001,0 7.20001,1.92 7.56,5.4 0.24,2.28 -0.83999,4.32 -2.99999,5.04 -1.44,0.48 -3.84,0.24 -4.8,-1.68 l -6,3 c 1.31999,3.72 5.64,6.48 10.2,6.48 7.44,0 11.88,-6.12 11.88,-13.08 0,-7.32 -6.84,-12.96 -15.96,-12.96 -9.96001,0 -23.880005,8.16 -29.160005,26.16 -4.44,15.12 1.08,28.439999 15.000005,28.199999 6,-0.12 10.8,-2.16 14.63999,-5.04 -1.08,3.24 -2.4,6 -3.72,8.52 -3.36,0.6 -6.72,1.08 -9.95999,1.32 -13.800005,1.2 -22.800005,5.4 -22.800005,13.92 0,4.68 3.96,9.24 13.2,9.24 9.839995,0 18.719995,-6.36 25.320005,-17.4 9.48,-2.52 18.24,-7.32 21.95999,-17.519999 l -6.95999,-1.68 c -1.92001,4.199999 -5.52,7.079999 -10.08,9.119999 1.19999,-3 2.16,-6.24 3.12,-9.719999 z m -20.76,22.319999 c -4.680005,4.56 -9.720005,6.6 -13.560005,6.6 -2.16,0 -3.48,-0.6 -3.48,-1.56 0,-1.56 1.92,-3.24 12.960005,-4.56 1.31999,-0.12 2.75999,-0.24 4.08,-0.48 z"/>
  </g>
</svg>